{"title":"Parker 2013 BRRiP x264 AC3-OFFLiNE","uid":8433990,"size":2415570274,"categoryP":"video","categoryS":"movies","magnet":"?xt=urn:btih:c7500138fadbba6a9adbae435a40cd6b5f409d08&amp;dn=Parker+2013+BRRiP+x264+AC3-OFFLiNE&amp;tr=udp%3A%2F%2Ftracker.openbittorrent.com%3A80&amp;tr=udp%3A%2F%2Fopen.demonii.com%3A1337&amp;tr=udp%3A%2F%2Ftracker.coppersurfer.tk%3A6969&amp;tr=udp%3A%2F%2Fexodus.desync.com%3A6969","seeders":0,"leechers":0,"uploader":"xxxlavalxxx","files":-1,"time":1367574855,"description":"\n\n\nA thief with a unique code of professional ethics is double-crossed by his crew and left for dead. Assuming a new disguise and forming an unlikely alliance with a woman on the inside, he looks to hijack the score of the crew's latest heist. \n\n\n\nDirector:\n Taylor Hackford \n\nWriters:\n John J. McLaughlin (screenplay), Donald E. Westlake (novel) \n\nStars:\n Jason Statham, Jennifer Lopez, Michael Chiklis \n\nGenres:\n  Action |  Crime |  Thriller \n\nCountry:\n USA \n\nLanguage:\n English \n\n\n\n\n\n\nParker 2013 BRRiP x264 AC3-OFFLiNE\n\n iMDB &lt;a href=&quot; http://www.imdb.com/title/tt1904996&quot; rel=&quot;nofollow&quot; target=&quot;_NEW&quot;&gt; http://www.imdb.com/title/tt1904996&lt;/a&gt;\n\n Source  720p iMFAMOUS  -  MANY THANKX\n\n Media Info\n Parker 2013 BRRiP x264 AC3-OFFLiNE.mp4\n Format                                   : MPEG-4\n Format profile                           : Base Media\n Codec ID                                 : isom\n File size                                : 2.25 GiB\n Duration                                 : 1h 58mn\n Overall bit rate mode                    : Variable\n Overall bit rate                         : 2 714 Kbps\n Encoded date                             : UTC 2013-05-03 03:02:49\n Tagged date                              : UTC 2013-05-03 03:02:49\n\n Video\n ID                                       : 1\n Format                                   : AVC\n Format/Info                              : Advanced Video Codec\n Format profile                           : &lt;a class=&quot;__cf_email__&quot; href=&quot;/cdn-cgi/l/email-protection&quot; data-cfemail=&quot;5810313f3018146c7669&quot;&gt;[email&amp;#160;protected]&lt;/a&gt;&lt;script data-cfhash='f9e31' type=&quot;text/javascript&quot;&gt;\n/* &lt;![CDATA[ */!function(){try{var t=&quot;currentScript&quot;in document?document.currentScript:function(){for(var t=document.getElementsByTagName(&quot;script&quot;),e=t.length;e--;)if(t[e].getAttribute(&quot;data-cfhash&quot;))return t[e]}();if(t&amp;&amp;t.previousSibling){var e,r,n,i,c=t.previousSibling,a=c.getAttribute(&quot;data-cfemail&quot;);if(a){for(e=&quot;&quot;,r=parseInt(a.substr(0,2),16),n=2;a.length-n;n+=2)i=parseInt(a.substr(n,2),16)^r,e+=String.fromCharCode(i);e=document.createTextNode(e),c.parentNode.replaceChild(e,c)}t.parentNode.removeChild(t);}}catch(u){}}()/* ]]&gt; */&lt;/script&gt;\n Format settings, CABAC                   : Yes\n Format settings, ReFrames                : 3 frames\n Codec ID                                 : avc1\n Codec ID/Info                            : Advanced Video Coding\n Duration                                 : 1h 58mn\n Bit rate mode                            : Variable\n Bit rate                                 : 2 328 Kbps\n Maximum bit rate                         : 40.0 Mbps\n Width                                    : 720 pixels\n Height                                   : 304 pixels\n Display aspect ratio                     : 2.35:1\n Frame rate mode                          : Constant\n Frame rate                               : 23.976 fps\n Color space                              : YUV\n Chroma subsampling                       : 4:2:0\n Bit depth                                : 8 bits\n Scan type                                : Progressive\n Bits/(Pixel*Frame)                       : 0.444\n Stream size                              : 1.93 GiB (86%)\n Title                                    : Parker 2013 BRRiP x264 AC3-OFFLiNE\n Writing library                          : x264 core 132 r2309 3b1f1f7\n\n Audio\n ID                                       : 2\n Format                                   : AC-3\n Format/Info                              : Audio Coding 3\n Mode extension                           : CM (complete main)\n Format settings, Endianness              : Big\n Codec ID                                 : ac-3\n Duration                                 : 1h 58mn\n Bit rate mode                            : Constant\n Bit rate                                 : 384 Kbps\n Channel(s)                               : 6 channels\n Channel positions                        : Front: L C R, Side: L R, LFE\n Sampling rate                            : 48.0 KHz\n Bit depth                                : 16 bits\n Compression mode                         : Lossy\n Stream size                              : 326 MiB (14%)\n Title                                    : 5.1\n Language                                 : English\n\n\n\n\n &lt;a href=&quot;\nhttp://addpix.net/viewer.php?file=42890920931538377396.jpg&quot; rel=&quot;nofollow&quot; target=&quot;_NEW&quot;&gt;\nhttp://addpix.net/viewer.php?file=42890920931538377396.jpg&lt;/a&gt; &lt;a href=&quot;\nhttp://addpix.net/viewer.php?file=41285929369590846342.jpg&quot; rel=&quot;nofollow&quot; target=&quot;_NEW&quot;&gt;\nhttp://addpix.net/viewer.php?file=41285929369590846342.jpg&lt;/a&gt; &lt;a href=&quot;\nhttp://addpix.net/viewer.php?file=31196176812111076230.jpg&quot; rel=&quot;nofollow&quot; target=&quot;_NEW&quot;&gt;\nhttp://addpix.net/viewer.php?file=31196176812111076230.jpg&lt;/a&gt; &lt;a href=&quot;\nhttp://addpix.net/viewer.php?file=30494002880556750866.jpg&quot; rel=&quot;nofollow&quot; target=&quot;_NEW&quot;&gt;\nhttp://addpix.net/viewer.php?file=30494002880556750866.jpg&lt;/a&gt;\n","torrent":{"xt":"urn:btih:c7500138fadbba6a9adbae435a40cd6b5f409d08","amp;dn":"Parker+2013+BRRiP+x264+AC3-OFFLiNE","amp;tr":["udp%3A%2F%2Ftracker.openbittorrent.com%3A80","udp%3A%2F%2Fopen.demonii.com%3A1337","udp%3A%2F%2Ftracker.coppersurfer.tk%3A6969","udp%3A%2F%2Fexodus.desync.com%3A6969"],"infoHash":"c7500138fadbba6a9adbae435a40cd6b5f409d08","infoHashBuffer":{"type":"Buffer","data":[199,80,1,56,250,219,186,106,154,219,174,67,90,64,205,107,95,64,157,8]},"announce":[],"urlList":[]}}